<svg width="104" height="104" viewBox="0 0 104 104" fill="none" xmlns="http://www.w3.org/2000/svg">
<path d="M40.2892 21.3665C41.9998 47.611 63.2069 43.7597 63.2069 43.7597C63.2069 43.7597 67.1483 23.038 40.2892 21.3665Z" fill="#8D9EC6"/>
<path d="M63.1059 43.7742C61.5458 44.0196 41.9321 46.5627 40.291 21.3656C42.328 21.4921 44.1909 21.7302 45.8876 22.0628C47.2294 38.8983 56.7814 42.9581 63.1059 43.7742Z" fill="#8D9EC6"/>
<path d="M1.74971 95.1385C28.6089 93.467 24.6674 72.7453 24.6674 72.7453C24.6674 72.7453 3.46078 68.894 1.74971 95.1385Z" fill="#8D9EC6"/>
<path d="M24.6827 72.8441C24.9338 74.3685 27.5365 93.5334 1.74925 95.1369C1.87875 93.1465 2.12244 91.3262 2.46282 89.6684C19.6925 88.3573 23.8471 79.0239 24.6827 72.8441Z" fill="#8D9EC6"/>
<path d="M75.9859 1.70972C59.7301 19.7545 75.9859 30.6589 75.9859 30.6589C75.9859 30.6589 92.2413 19.7545 75.9859 1.70972Z" fill="#8D9EC6"/>
<path d="M75.9107 30.6052C74.74 29.7788 60.3798 19.0343 75.9873 1.71069C77.2202 3.07866 78.2667 4.40944 79.1439 5.69618C68.8739 17.4257 72.3626 26.0828 75.9107 30.6052Z" fill="#8D9EC6"/>
<path d="M75.1472 86.2736C75.1472 85.3293 74.3636 84.5637 73.3972 84.5637H41.0098C38.5825 84.5637 36.6076 82.634 36.6076 80.2619C36.6076 77.8897 38.5825 75.9604 41.0098 75.9604H47.1715C48.138 75.9604 48.9216 75.1948 48.9216 74.2505C48.9216 73.3062 48.138 72.5405 47.1715 72.5405H41.0098C36.6527 72.5405 33.1076 76.0045 33.1076 80.2619C33.1076 84.5192 36.6527 87.9836 41.0098 87.9836H73.3972C74.3636 87.9836 75.1472 87.218 75.1472 86.2736Z" fill="#8D9EC6"/>
<path d="M40.3395 58.4414C39.3731 58.4414 38.5895 59.207 38.5895 60.1514C38.5895 61.0957 39.3731 61.8613 40.3395 61.8613H51.8498C52.8162 61.8613 53.5998 61.0957 53.5998 60.1514C53.5998 59.207 52.8162 58.4414 51.8498 58.4414H40.3395Z" fill="#8D9EC6"/>
<path d="M19.4624 61.8614H33.7774C34.7439 61.8614 35.5275 61.0958 35.5275 60.1515C35.5275 59.2071 34.7439 58.4415 33.7774 58.4415H19.4624C17.0347 58.4415 15.0598 56.5118 15.0598 54.1401C15.0598 51.7684 17.0347 49.8383 19.4624 49.8383H25.6242C26.5906 49.8383 27.3742 49.0726 27.3742 48.1283C27.3742 47.184 26.5906 46.4183 25.6242 46.4183H19.4624C15.1048 46.4183 11.5598 49.8823 11.5598 54.1401C11.5598 58.3979 15.1048 61.8614 19.4624 61.8614Z" fill="#8D9EC6"/>
<path d="M92.8648 100.58H73.4756C71.7142 100.58 70.2805 99.1796 70.2805 97.4586C70.2805 95.7371 71.7138 94.3366 73.4756 94.3366H78.4281C79.3945 94.3366 80.1781 93.571 80.1781 92.6266C80.1781 91.6823 79.3945 90.9167 78.4281 90.9167H73.4756C69.7839 90.9167 66.7805 93.8514 66.7805 97.4586C66.7805 101.066 69.7839 104 73.4756 104H92.8648C93.8312 104 94.6148 103.234 94.6148 102.29C94.6148 101.346 93.8312 100.58 92.8648 100.58Z" fill="#8D9EC6"/>
<path d="M102.25 63.7154H78.1266C75.6989 63.7154 73.724 61.7857 73.724 59.414C73.724 57.0423 75.6989 55.1122 78.1266 55.1122H84.2883C85.2548 55.1122 86.0384 54.3465 86.0384 53.4022C86.0384 52.4579 85.2548 51.6923 84.2883 51.6923H78.1266C73.769 51.6923 70.224 55.1562 70.224 59.414C70.224 63.6718 73.769 67.1353 78.1266 67.1353H102.25C103.216 67.1353 104 66.3697 104 65.4254C104 64.4811 103.216 63.7154 102.25 63.7154Z" fill="#8D9EC6"/>
<path d="M47.5102 41.5626C52.058 45.0236 57.1847 45.6721 60.389 45.6721C62.2002 45.6721 63.3968 45.4647 63.5267 45.4412C64.2385 45.3121 64.795 44.7679 64.9276 44.0724C64.9945 43.7206 66.5026 35.3781 60.9586 28.4228C56.794 23.1985 49.8775 20.2501 40.4008 19.6606C39.3565 19.5883 38.4758 20.4471 38.5432 21.4757C39.1465 30.7351 42.1635 37.4933 47.5102 41.5626ZM58.1717 30.4923C61.6166 34.7903 61.7627 39.9061 61.6175 42.2124C59.2685 42.3624 54.078 42.2256 49.661 38.8643C45.5099 35.7051 43.0079 30.456 42.2094 23.2429C49.5717 24.021 54.9364 26.4555 58.1717 30.4923Z" fill="#8D9EC6"/>
<path d="M24.9872 71.0639C24.6275 70.9985 16.0888 69.5258 8.97107 74.9421C3.62436 79.0113 0.607342 85.7695 0.00358945 95.0294C-0.0602859 96.0096 0.736406 96.8479 1.7501 96.8479C1.78685 96.8479 1.82404 96.8471 1.86122 96.8445C11.3384 96.255 18.2553 93.3066 22.419 88.0818C27.963 81.1266 26.4554 72.7841 26.388 72.4323C26.2555 71.7376 25.699 71.1934 24.9872 71.0639ZM19.6575 85.9807C16.4244 90.0367 11.0523 92.482 3.66986 93.2621C4.46611 86.0683 6.95769 80.8269 11.089 77.6652C14.4678 75.0797 18.8897 74.0443 23.0836 74.2982C23.2358 76.5943 23.0976 81.6652 19.6575 85.9807Z" fill="#8D9EC6"/>
<path d="M74.9954 32.0692C75.5913 32.4693 76.3796 32.4697 76.976 32.0692C77.2542 31.8824 83.8014 27.4057 84.8269 19.3432C85.5969 13.2925 83.0642 6.97979 77.2993 0.579837C76.6023 -0.193493 75.3686 -0.193065 74.6716 0.579837C68.9067 6.97936 66.3735 13.2921 67.1435 19.3432C68.1699 27.4053 74.7176 31.8824 74.9954 32.0692ZM75.9859 4.36997C80.1194 9.43829 81.9263 14.3134 81.3593 18.8815C80.7625 23.6874 77.6208 27.0188 75.9859 28.4552C74.3492 27.0175 71.2088 23.6865 70.6125 18.8815C70.045 14.3134 71.8519 9.43872 75.9859 4.36997Z" fill="#8D9EC6"/>
</svg>
